<svg version="1.1" xmlns="http://www.w3.org/2000/svg" xmlns:xlink="http://www.w3.org/1999/xlink"
     viewBox="0 0 256 256" xml:space="preserve">
<metadata> Svg Vector Icons : http://www.onlinewebfonts.com/icon </metadata>
<g><g><path fill="currentColor" d="M88.8,180.6c2,7.9,11.8,20.6,15.7,23.6h10.8c0,0-3.9-17.7-3.9-19.7C95.7,183.5,88.8,180.6,88.8,180.6z"/><path
        fill="currentColor"
        d="M182.1,184.5c2.9,7.8,8.8,16.7,11.8,19.6h8.8c0,0-2.9-20.6-2.9-22.6C190,184.5,182.1,184.5,182.1,184.5z"/><path
        fill="currentColor"
        d="M35.7,75.4c2,0,3.9-1,4.9-2c6.9-3,9.8-9.8,8.8-16.7c-2-5.9-7.9-9.8-13.8-9.8C27.8,47,21,52.9,21,61.7c0,1,0,3.9,1,5.9c-9.8-3-7.9-8.8-10.8-7.9c-2,1-1,5.9,0,8.8c2.9,4.9,8.8,7.9,14.7,8.8c2.9,5.9,7.9,15.7,18.7,22.6c1,0-1-3.9,0-3.9s0-2.9,1-3.9c1-2,7.9-6.9,4.9-5.9C44.6,86.3,38.7,79.4,35.7,75.4z M30.8,67.6c0-2-1-3.9-1-5.9c0-4.9,3.9-5.9,5.9-5.9c3.9,0,4.9,3,4.9,3.9c1,2,0,5.9-3.9,6.9C35.7,66.6,33.8,66.6,30.8,67.6z"/><path
        fill="currentColor"
        d="M240.1,133.4c-17.7,2-8.8-18.7-23.6-25.5c0,0,10.8,0,18.7-6.9c18.7-12.8,5.9-34.4,5.9-34.4s-2.9,12.8-22.6,16.7c-18.7,3.9-21.6,18.7-21.6,25.5c-5.9-13.8,4.9-29.5,5.9-30.5c-7.9-15.7-42.3-31.4-74.7-31.4c-43.2,0-88.4,19.6-88.4,66.8c0,24.6,5.9,61.9,20.6,90.4H74c1-5.9,4.9-27.5,5.9-35.4c22.6,5.9,67.8,5.9,67.8,5.9c3.9,12.8,10.8,25.5,14.7,31.5c2,2.9,2.9,2.9,4.9,2.9c1,0,3.9,0,4.9,0c2.9,0,2-3.9,2-3.9v-29.5c35.4-1,57-9.8,65.8-17.7c3-2,5.9-9.8,5.9-14.7C246,138.3,244,129.5,240.1,133.4z M211.6,136.4c-2.9,0-5.9-2.9-5.9-5.9c0-2.9,3-5.9,5.9-5.9c2.9,0,5.9,3,5.9,5.9C217.5,133.4,214.6,136.4,211.6,136.4z"/></g></g>
        </svg>